# xmcd
#
# Track frame offsets:
#	150
#	14357
#	32844
#	45551
#	60178
#	75065
#	87149
#	98103
#	115080
#	128557
#	144467
#
# Disc length: 2168
#
# Revision: 3
# Processed by: cddbd v1.5.1PL0 Copyright (c) Steve Scherf et al.
# Submitted via: cddb2pg 0.002
# Normalized: r2:DSETVAR1
#
DISCID=7408760b
DTITLE=Various Artist - Unbekannte CD #7408760BE98C8A6A
DYEAR=1900
DGENRE=
TTITLE0=Bata Illic - Michaela
TTITLE1=Heino - Blau blüht der Enzian
TTITLE2=Roberto Blanco - Ein bißchen Spaß muß sein
TTITLE3=Ibo - Ibiza Teil 2
TTITLE4=Wencke Myhre - Er hat ein knallrotes Gummiboot
TTITLE5=Tony Holyday - Tanze Samba mit mir
TTITLE6=Manuela - Schuld war nur der Bossa Nova
TTITLE7=Chris Roberts - Du kannst nicht immer 17 sein
TTITLE8=Mina - Heißer Sand
TTITLE9=Peter Rubin - Azzurro
TTITLE10=Vader Abraham - Lied der Schlümpfe
EXTD=
EXTT0=
EXTT1=
EXTT2=
EXTT3=
EXTT4=
EXTT5=
EXTT6=
EXTT7=
EXTT8=
EXTT9=
EXTT10=
PLAYORDER=
